<?xml version="1.0" encoding="utf-8"?>
<!-- Generator: Adobe Illustrator 25.2.3, SVG Export Plug-In . SVG Version: 6.00 Build 0)  -->
<svg version="1.1" id="Capa_1" xmlns="http://www.w3.org/2000/svg" xmlns:xlink="http://www.w3.org/1999/xlink" x="0px" y="0px"
	 viewBox="0 0 31.5 31.5" style="enable-background:new 0 0 31.5 31.5;" xml:space="preserve">
<style type="text/css">
	.st0{fill:#F2EEE8;}
</style>
<g>
	<g>
		<path class="st0" d="M8.5,17.7l2.4,1.4L7.8,13l-6.9,0.2l2.2,1.3L0,20.2c0,0,2.5,4.4,4.1,7.1C4.8,28.4,5.7,29,6.6,29h8.9v-6.4
			l-9.7,0L8.5,17.7z"/>
		<path class="st0" d="M16.7,10.5l6.8,0.4l3.2-6.1L24.4,6L21,0.6c0,0-5.1-0.1-8.2,0.1c-1.3,0.1-2.3,0.6-2.7,1.3L5.7,9.8l5.6,3.2
			l4.8-8.4L19,9.2L16.7,10.5z"/>
		<path class="st0" d="M31.2,18.3L27,10.5l-5.7,3.1l4.6,8.5L20.5,22l0.1-2.5l-3.9,5.4l3.5,6l0.1-2.6l6.4,0c0,0,2.7-4.3,4.3-7
			C31.5,20.2,31.6,19.1,31.2,18.3z"/>
	</g>
</g>
</svg>
