<?xml version="1.0" encoding="utf-8"?>
<!-- Generator: Adobe Illustrator 25.2.3, SVG Export Plug-In . SVG Version: 6.00 Build 0)  -->
<svg version="1.1" id="Capa_1" xmlns="http://www.w3.org/2000/svg" xmlns:xlink="http://www.w3.org/1999/xlink" x="0px" y="0px"
	 viewBox="0 0 512 512" style="enable-background:new 0 0 512 512;" xml:space="preserve">
<style type="text/css">
	.st0{fill:#F2EEE8;}
</style>
<g id="No_plastic_Bag-Pollution-Ban-Plastic-Bag">
	<path class="st0" d="M256,208c-57.4,0-104,46.6-104,104s46.6,104,104,104s104-46.6,104-104C359.9,254.6,313.4,208.1,256,208z
		 M304.5,385.4c-40.5,26.8-95.1,15.7-121.9-24.8c-19.5-29.4-19.5-67.7,0-97.1c2.4-3.7,7.4-4.7,11.1-2.2c0.4,0.3,0.8,0.6,1.2,1
		l110.8,110.8c3.1,3.1,3.1,8.2,0,11.3C305.4,384.7,304.9,385.1,304.5,385.4L304.5,385.4z M329.4,360.5c-1.3,2-3.5,3.3-5.9,3.5
		c-0.3,0-0.5,0-0.8,0c-2.1,0-4.2-0.8-5.7-2.3L206.3,250.9c-3.1-3.1-3.1-8.2,0-11.3c0.4-0.4,0.8-0.7,1.2-1
		c40.5-26.9,95.1-15.8,121.9,24.7C348.9,292.7,348.9,331,329.4,360.5L329.4,360.5z"/>
	<path class="st0" d="M256,240c-10.7,0-21.3,2.4-31,7l96,96c17.1-35.9,1.9-78.9-33.9-96C277.4,242.4,266.7,240,256,240L256,240z"/>
	<path class="st0" d="M184,312c0,39.8,32.2,72,72,72c10.7,0,21.3-2.4,31-7l-96-96C186.4,290.7,184,301.3,184,312L184,312z"/>
	<path class="st0" d="M360,32h48v24h-48V32z"/>
	<path class="st0" d="M408,72h-48v48c0,13.3-10.7,24-24,24H184c-12.7,0-32-9.6-32-24V72h-48v384c0,13.3,10.7,24,24,24h256
		c13.3,0,24-10.7,24-24V72z M256,432c-66.3,0-120-53.7-120-120s53.7-120,120-120s120,53.7,120,120C375.9,378.2,322.2,431.9,256,432z
		"/>
	<path class="st0" d="M104,32h48v24h-48V32z"/>
</g>
</svg>
