<?xml version="1.0" encoding="utf-8"?>
<!-- Generator: Adobe Illustrator 25.2.3, SVG Export Plug-In . SVG Version: 6.00 Build 0)  -->
<svg version="1.1" id="Capa_1" xmlns="http://www.w3.org/2000/svg" xmlns:xlink="http://www.w3.org/1999/xlink" x="0px" y="0px"
	 viewBox="0 0 512 512" style="enable-background:new 0 0 512 512;" xml:space="preserve">
<style type="text/css">
	.st0{fill:#F2EEE8;}
</style>
<g id="Package">
	<path class="st0" d="M321.8,463.8c-0.6,0.1-1.2,0.1-1.8,0.2c-0.6,0-1.3-0.1-1.9-0.2L256,448.2l-62.1,15.5c-1.2,0.3-2.5,0.3-3.7,0.1
		l-70-15.6L72,462v15.4l45.8-13c1.3-0.4,2.6-0.4,3.9-0.2l70.2,15.6l62.2-15.5c1.3-0.3,2.6-0.3,3.8,0l62.2,15.5l70.2-15.6
		c1.3-0.3,2.6-0.2,3.9,0.2l45.8,13V462l-48.2-13.8L321.8,463.8z"/>
	<path class="st0" d="M200,240.6v7.4c0,27.8,20.5,51.4,48,55.4V296C248,268.2,227.5,244.6,200,240.6z"/>
	<path class="st0" d="M72,80h368v16H72V80z"/>
	<path class="st0" d="M264,296v7.4c27.5-4,48-27.6,48-55.4v-7.4C284.5,244.6,264,268.2,264,296z"/>
	<path class="st0" d="M394.2,47.7c-1.3,0.4-2.7,0.4-4.1,0.1l-62.2-15.5l-70.2,15.6c-1.2,0.2-2.4,0.2-3.5,0l-70.2-15.6l-62.2,15.5
		c-1.3,0.3-2.8,0.3-4.1-0.1L72,34.6V64h368V34.6L394.2,47.7z"/>
	<path class="st0" d="M256,160c-61.9,0-112,50.1-112,112s50.1,112,112,112s112-50.1,112-112C367.9,210.2,317.8,160.1,256,160z
		 M328,248c0,39.8-32.2,72-72,72s-72-32.2-72-72v-16c0-4.4,3.6-8,8-8c27,0,51.7,15.2,64,39.2c12.3-24,37-39.2,64-39.2
		c4.4,0,8,3.6,8,8V248z"/>
	<path class="st0" d="M424.2,342.6l15.6-86l-15.4-46c-0.4-1.2-0.5-2.5-0.3-3.8l14.6-94.8h-364l13,45.8c0.3,1.1,0.4,2.3,0.2,3.4
		l-15.8,94.8l15.8,110.8c0.2,1.2,0.1,2.5-0.3,3.7L72,417.3v28.1l45.8-13c1.3-0.4,2.6-0.4,3.9-0.2l70.2,15.6l62.2-15.5
		c1.3-0.3,2.6-0.3,3.8,0l62.2,15.5l70.2-15.6c1.3-0.3,2.6-0.2,3.9,0.2l45.8,13v-12.6l-15.8-87.3
		C423.9,344.5,423.9,343.5,424.2,342.6L424.2,342.6z M256,400c-70.7,0-128-57.3-128-128s57.3-128,128-128s128,57.3,128,128
		C383.9,342.7,326.7,399.9,256,400z"/>
</g>
</svg>
