<?xml version="1.0" encoding="utf-8"?>
<!-- Generator: Adobe Illustrator 25.2.3, SVG Export Plug-In . SVG Version: 6.00 Build 0)  -->
<svg version="1.1" id="Capa_1" xmlns="http://www.w3.org/2000/svg" xmlns:xlink="http://www.w3.org/1999/xlink" x="0px" y="0px"
	 viewBox="0 0 512 512" style="enable-background:new 0 0 512 512;" xml:space="preserve">
<style type="text/css">
	.st0{fill:#F2EEE8;}
</style>
<g>
	<path class="st0" d="M295.5,131c4.9,0,8.8-3.9,8.8-8.8v-17.6c0-4.9-3.9-8.8-8.8-8.8H225c-4.9,0-8.8,3.9-8.8,8.8v17.6
		c0,4.9,3.9,8.8,8.8,8.8H295.5z"/>
	<path class="st0" d="M189.7,388c0,4.9,3.9,8.8,8.8,8.8H322c4.9,0,8.8-3.9,8.8-8.8v-62.3c0-6.4-2.7-12.4-7.9-17.6
		c5.1-5.2,7.9-11.3,7.9-17.6s-2.7-12.4-7.9-17.6c5.1-5.2,7.9-11.3,7.9-17.6c0-6.4-2.7-12.4-7.9-17.6c5.1-5.2,7.9-11.3,7.9-17.6
		v-18.2c0-21.3-15.2-39.1-35.3-43.2v-9.7H225v9.7c-20.1,4.1-35.3,21.9-35.3,43.2v18.2c0,6.4,2.7,12.4,7.9,17.6
		c-5.1,5.2-7.9,11.3-7.9,17.6c0,6.4,2.7,12.4,7.9,17.6c-5.1,5.2-7.9,11.3-7.9,17.6s2.7,12.4,7.9,17.6c-5.1,5.2-7.9,11.3-7.9,17.6
		V388z"/>
</g>
<path class="st0" d="M512,145.4l-77.1-22.5l-22.5,77.1l28.9,8.5l8.6-29.3c9.8,24.4,14.8,50.7,14.8,77.3c0,114.7-93.3,208-208,208
	c-37.8,0-74.8-10.2-107.1-29.6l-15.5,25.8c36.9,22.2,79.3,33.9,122.6,33.9c63.6,0,123.4-24.8,168.4-69.8
	c45-45,69.8-104.8,69.8-168.4c0-30.9-6-61.4-17.5-89.7l26.2,7.7L512,145.4z"/>
<path class="st0" d="M109.4,107.8c39.2-38.9,91.2-60.3,146.4-60.3c0.3,0,0.7,0,1,0c37.8,0.2,74.8,10.6,106.9,30.1l15.7-25.8
	C342.6,29.5,300.3,17.6,257,17.4c-0.4,0-0.8,0-1.1,0c-63.2,0-122.7,24.5-167.6,69C43,131.1,18,190.8,17.7,254.5
	c-0.1,30.9,5.7,61.4,17.1,89.8l-26.2-7.8L0,365.4l77,22.9l22.9-77L71,302.7l-8.7,29.2c-9.7-24.5-14.6-50.7-14.5-77.3
	C48.1,199,69.9,146.9,109.4,107.8z"/>
</svg>
